<svg version="1.1" id="Layer_1" xmlns="http://www.w3.org/2000/svg" xmlns:xlink="http://www.w3.org/1999/xlink" x="0px" y="0px"
	 width="100%" viewBox="0 0 424 185" enable-background="new 0 0 424 185" xml:space="preserve">
<path fill="transparent" opacity="1.000000" stroke="none" 
	d="
M319.000000,186.000000 
	C212.666702,186.000000 106.833397,186.000000 1.000071,186.000000 
	C1.000047,124.333382 1.000047,62.666767 1.000024,1.000112 
	C142.333237,1.000075 283.666473,1.000075 424.999817,1.000037 
	C424.999878,62.666553 424.999878,124.333107 424.999939,185.999832 
	C389.833344,186.000000 354.666656,186.000000 319.000000,186.000000 
M327.759186,99.607719 
	C328.378418,98.299194 329.196594,95.808296 329.584717,95.873573 
	C332.150177,96.305145 335.796631,96.527634 336.899536,98.234375 
	C339.840424,102.785378 341.497742,108.144722 344.045898,112.982269 
	C344.914185,114.630638 346.757507,116.505493 348.434448,116.828758 
	C351.609589,117.440826 354.986542,117.005775 359.542480,117.005775 
	C354.085083,108.681046 349.213043,101.249222 344.261169,93.695610 
	C344.456543,93.527557 344.782379,93.193100 345.158875,92.931580 
	C351.272400,88.685204 353.792999,82.450920 351.962402,75.652260 
	C350.177917,69.025032 344.894775,67.107101 338.941010,66.910011 
	C330.345215,66.625450 321.732941,66.837219 311.329193,66.837219 
	C312.988098,69.180664 313.635468,71.132706 314.686462,71.381844 
	C317.628204,72.079147 317.621124,73.934189 317.609314,76.219681 
	C317.555084,86.702560 317.549500,97.186089 317.611969,107.668877 
	C317.626709,110.146568 317.639526,112.199059 314.409973,112.822998 
	C313.395111,113.019058 312.703003,114.885414 311.310822,116.711929 
	C319.811920,116.711929 326.726227,116.711929 333.558136,116.711929 
	C335.101959,111.073357 329.581940,113.554764 327.757996,110.993721 
	C327.757996,107.852966 327.757996,104.213524 327.759186,99.607719 
M108.095711,100.370773 
	C101.340927,89.882416 94.620598,79.371429 87.772400,68.944420 
	C87.159431,68.011131 85.741646,67.119774 84.656799,67.068214 
	C80.221512,66.857430 75.770363,66.980301 71.325058,66.980301 
	C71.029076,67.550247 70.733101,68.120193 70.437119,68.690147 
	C72.232887,70.188293 74.028656,71.686440 76.092255,73.408020 
	C76.092255,85.785645 76.092255,98.733749 76.092255,111.585106 
	C71.236176,113.387794 71.236176,113.387794 71.834221,116.789841 
	C77.445564,116.789841 83.064232,116.789841 88.749672,116.789841 
	C90.075760,110.700951 84.104858,113.685448 82.399933,111.265976 
	C82.399933,100.530304 82.399933,89.641388 82.399933,78.368866 
	C83.088287,78.869827 83.559044,79.052071 83.778000,79.395050 
	C90.670708,90.192162 97.805084,100.848541 104.289513,111.886574 
	C107.181564,116.809509 110.598717,118.033104 115.991409,116.460602 
	C115.991409,101.830276 115.991409,87.223175 115.991409,72.419083 
	C118.501038,71.473038 122.598915,71.973648 120.641869,67.202560 
	C115.473778,67.202560 110.209961,67.202560 104.889908,67.202560 
	C102.996437,72.437424 107.712227,71.214493 109.707718,72.329506 
	C109.707718,82.436737 109.707718,92.353271 109.707718,102.954361 
	C108.971352,101.852943 108.696541,101.441902 108.095711,100.370773 
M253.097839,99.367836 
	C253.441544,95.573212 254.144730,91.770782 254.062592,87.985397 
	C253.800140,75.888878 247.030182,68.049698 235.016357,67.033638 
	C226.135300,66.282524 217.139694,66.886032 208.195114,66.886032 
	C207.883224,67.451981 207.571335,68.017929 207.259445,68.583878 
	C209.007324,70.118874 210.755203,71.653870 212.775360,73.427979 
	C212.775360,85.804901 212.775360,98.774300 212.775360,111.605873 
	C210.802200,113.096344 206.129700,111.782181 208.009415,116.746124 
	C213.866943,117.007523 219.669739,117.124016 225.449356,117.552872 
	C239.175858,118.571388 247.952713,113.087204 253.097839,99.367836 
M303.296082,29.714563 
	C305.231750,29.714563 307.167450,29.714563 309.220795,29.714563 
	C309.220795,27.813721 309.220795,26.567484 309.220795,25.121529 
	C234.359589,25.121529 159.776840,25.121529 85.071510,25.121529 
	C85.071510,26.701042 85.071510,28.089701 85.071510,29.714359 
	C157.729309,29.714359 230.037582,29.714359 303.296082,29.714563 
M88.833862,157.921295 
	C84.809097,157.437286 83.761841,159.001999 85.325317,162.456390 
	C160.073456,162.456390 234.514374,162.456390 309.114655,162.456390 
	C309.114655,160.832886 309.114655,159.471069 309.114655,157.921249 
	C235.735489,157.921249 162.747314,157.921249 88.833862,157.921295 
M296.034668,109.753380 
	C295.237000,110.484154 294.464844,111.811775 293.637482,111.847122 
	C288.894531,112.049812 284.138489,111.945709 279.301880,111.945709 
	C279.301880,105.903412 279.301880,100.016190 279.301880,94.241547 
	C282.423798,94.241547 285.176025,94.241547 287.699860,94.241547 
	C289.260620,96.638817 288.122681,101.451355 293.437683,99.294250 
	C293.437683,94.118614 293.437683,88.889206 293.437683,83.767700 
	C288.006958,81.696617 289.300323,86.682762 287.599884,88.785431 
	C284.997894,88.785431 282.233124,88.785431 279.234436,88.785431 
	C279.234436,82.841171 279.234436,77.122719 279.234436,71.004829 
	C282.504547,71.202911 285.461578,71.563232 288.411560,71.512772 
	C291.755646,71.455574 294.014069,72.220123 295.005524,75.942055 
	C295.317993,77.115021 297.812653,77.706673 300.307495,79.137146 
	C299.950806,74.019386 299.714264,70.625511 299.483734,67.317574 
	C287.173340,67.317574 275.435547,67.317574 263.697784,67.317574 
	C263.405884,67.826218 263.114014,68.334854 262.822113,68.843498 
	C264.663422,70.227287 266.504730,71.611084 268.701599,73.262077 
	C268.701599,85.669891 268.701599,98.749229 268.701599,111.643471 
	C266.640167,113.116386 262.012238,111.975243 264.059174,116.801468 
	C276.816956,116.801468 289.412903,116.801468 302.423126,116.801468 
	C302.973053,112.639915 303.502045,108.636909 304.047974,104.505905 
	C302.006104,104.080322 300.590759,103.785332 299.009949,103.455841 
	C298.053314,105.449303 297.196472,107.234917 296.034668,109.753380 
M153.882538,88.670464 
	C150.450012,86.663795 146.851501,84.888588 143.634277,82.581657 
	C140.745300,80.510078 140.035049,77.354958 141.750961,74.139481 
	C143.887253,70.136208 147.747986,70.659584 151.442749,70.849113 
	C154.895248,71.026207 155.935959,73.174690 156.038483,76.179413 
	C156.184387,80.455025 158.139877,81.742599 162.018784,80.084030 
	C163.324600,66.701988 164.498077,68.830872 152.203537,66.511093 
	C149.512741,66.003380 146.558105,66.417419 143.796799,66.857552 
	C137.760117,67.819748 133.237549,70.795746 131.770996,77.171196 
	C130.410980,83.083466 132.511414,88.210411 138.398270,92.034340 
	C142.283203,94.557869 146.578232,96.442284 150.628906,98.720802 
	C154.204880,100.732315 156.797302,103.436333 155.594391,107.987778 
	C154.534164,111.999336 151.042831,113.545876 144.980347,113.173912 
	C140.738083,112.913612 137.998779,111.334892 137.942856,106.628273 
	C137.891037,102.268921 135.745605,101.189682 131.502716,102.932304 
	C131.502716,106.773506 131.502716,110.554855 131.502716,114.726776 
	C138.909561,117.097824 146.554840,119.227776 154.618347,116.858315 
	C160.684555,115.075760 164.844055,111.235558 165.805984,104.779419 
	C166.734924,98.544693 163.460770,94.321320 158.468613,91.166260 
	C157.206085,90.368355 155.857941,89.705963 153.882538,88.670464 
M50.483910,66.975769 
	C46.840458,66.975769 43.197006,66.975769 39.630276,66.975769 
	C37.374279,72.775986 42.985806,70.967941 44.663204,72.586433 
	C44.663204,85.796021 44.663204,98.757050 44.663204,111.651634 
	C39.241337,113.331375 39.241337,113.331375 39.641071,116.731430 
	C46.574055,116.731430 53.510166,116.731430 60.400486,116.731430 
	C61.942368,111.377350 56.921402,113.490143 55.097271,111.434822 
	C55.097271,98.715919 55.097271,85.613136 55.097271,72.553017 
	C57.187084,71.060432 62.116982,72.647285 60.243378,66.975761 
	C57.391796,66.975761 54.423260,66.975761 50.483910,66.975769 
M180.633713,72.255539 
	C180.811157,79.382469 181.047180,86.508568 181.148178,93.636581 
	C181.234558,99.733192 181.166061,105.831985 181.166061,111.713615 
	C175.651016,113.294327 175.651016,113.294327 176.201889,116.827286 
	C182.972519,116.827286 189.760025,116.827286 196.616348,116.827286 
	C198.497589,111.342484 193.035126,113.542801 191.392456,111.316978 
	C191.392456,98.607079 191.392456,85.502586 191.392456,72.500198 
	C193.768784,71.191162 198.449020,72.524773 196.655792,67.260529 
	C189.715057,67.260529 182.795731,67.260529 175.937836,67.260529 
	C174.482590,71.430862 177.365463,71.507935 180.633713,72.255539 
z"/>
<path fill="#FF5C5C" opacity="1.000000" stroke="none" 
	d="
M327.758606,100.090904 
	C327.757996,104.213524 327.757996,107.852966 327.757996,110.993721 
	C329.581940,113.554764 335.101959,111.073357 333.558136,116.711929 
	C326.726227,116.711929 319.811920,116.711929 311.310822,116.711929 
	C312.703003,114.885414 313.395111,113.019058 314.409973,112.822998 
	C317.639526,112.199059 317.626709,110.146568 317.611969,107.668877 
	C317.549500,97.186089 317.555084,86.702560 317.609314,76.219681 
	C317.621124,73.934189 317.628204,72.079147 314.686462,71.381844 
	C313.635468,71.132706 312.988098,69.180664 311.329193,66.837219 
	C321.732941,66.837219 330.345215,66.625450 338.941010,66.910011 
	C344.894775,67.107101 350.177917,69.025032 351.962402,75.652260 
	C353.792999,82.450920 351.272400,88.685204 345.158875,92.931580 
	C344.782379,93.193100 344.456543,93.527557 344.261169,93.695610 
	C349.213043,101.249222 354.085083,108.681046 359.542480,117.005775 
	C354.986542,117.005775 351.609589,117.440826 348.434448,116.828758 
	C346.757507,116.505493 344.914185,114.630638 344.045898,112.982269 
	C341.497742,108.144722 339.840424,102.785378 336.899536,98.234375 
	C335.796631,96.527634 332.150177,96.305145 329.584717,95.873573 
	C329.196594,95.808296 328.378418,98.299194 327.758606,100.090904 
M341.643036,77.242172 
	C339.388367,71.109138 336.231537,69.768478 328.031128,71.590996 
	C328.031128,77.902618 328.031128,84.257240 328.031128,90.560150 
	C337.442169,92.273109 341.168610,89.927147 341.869049,82.006302 
	C341.984680,80.698219 341.836792,79.366844 341.643036,77.242172 
z"/>
<path fill="#FF5E5E" opacity="1.000000" stroke="none" 
	d="
M108.258720,100.700821 
	C108.696541,101.441902 108.971352,101.852943 109.707718,102.954361 
	C109.707718,92.353271 109.707718,82.436737 109.707718,72.329506 
	C107.712227,71.214493 102.996437,72.437424 104.889908,67.202560 
	C110.209961,67.202560 115.473778,67.202560 120.641869,67.202560 
	C122.598915,71.973648 118.501038,71.473038 115.991409,72.419083 
	C115.991409,87.223175 115.991409,101.830276 115.991409,116.460602 
	C110.598717,118.033104 107.181564,116.809509 104.289513,111.886574 
	C97.805084,100.848541 90.670708,90.192162 83.778000,79.395050 
	C83.559044,79.052071 83.088287,78.869827 82.399933,78.368866 
	C82.399933,89.641388 82.399933,100.530304 82.399933,111.265976 
	C84.104858,113.685448 90.075760,110.700951 88.749672,116.789841 
	C83.064232,116.789841 77.445564,116.789841 71.834221,116.789841 
	C71.236176,113.387794 71.236176,113.387794 76.092255,111.585106 
	C76.092255,98.733749 76.092255,85.785645 76.092255,73.408020 
	C74.028656,71.686440 72.232887,70.188293 70.437119,68.690147 
	C70.733101,68.120193 71.029076,67.550247 71.325058,66.980301 
	C75.770363,66.980301 80.221512,66.857430 84.656799,67.068214 
	C85.741646,67.119774 87.159431,68.011131 87.772400,68.944420 
	C94.620598,79.371429 101.340927,89.882416 108.258720,100.700821 
z"/>
<path fill="#FF5C5C" opacity="1.000000" stroke="none" 
	d="
M253.015930,99.770767 
	C247.952713,113.087204 239.175858,118.571388 225.449356,117.552872 
	C219.669739,117.124016 213.866943,117.007523 208.009415,116.746124 
	C206.129700,111.782181 210.802200,113.096344 212.775360,111.605873 
	C212.775360,98.774300 212.775360,85.804901 212.775360,73.427979 
	C210.755203,71.653870 209.007324,70.118874 207.259445,68.583878 
	C207.571335,68.017929 207.883224,67.451981 208.195114,66.886032 
	C217.139694,66.886032 226.135300,66.282524 235.016357,67.033638 
	C247.030182,68.049698 253.800140,75.888878 254.062592,87.985397 
	C254.144730,91.770782 253.441544,95.573212 253.015930,99.770767 
M234.067749,71.961601 
	C230.541595,71.554420 227.015457,71.147247 222.872482,70.668846 
	C222.872482,84.523804 222.816238,97.428627 222.995621,110.330185 
	C223.007919,111.215530 224.675842,112.657555 225.754242,112.854958 
	C233.135941,114.206177 240.228943,110.648041 241.541840,103.370949 
	C242.832352,96.217903 242.690399,88.571983 241.695526,81.346321 
	C241.241837,78.051140 237.225021,75.246544 234.067749,71.961601 
z"/>
<path fill="#D0731D" opacity="1.000000" stroke="none" 
	d="
M302.820984,29.714462 
	C230.037582,29.714359 157.729309,29.714359 85.071510,29.714359 
	C85.071510,28.089701 85.071510,26.701042 85.071510,25.121529 
	C159.776840,25.121529 234.359589,25.121529 309.220795,25.121529 
	C309.220795,26.567484 309.220795,27.813721 309.220795,29.714563 
	C307.167450,29.714563 305.231750,29.714563 302.820984,29.714462 
z"/>
<path fill="#D0731D" opacity="1.000000" stroke="none" 
	d="
M89.296494,157.921265 
	C162.747314,157.921249 235.735489,157.921249 309.114655,157.921249 
	C309.114655,159.471069 309.114655,160.832886 309.114655,162.456390 
	C234.514374,162.456390 160.073456,162.456390 85.325317,162.456390 
	C83.761841,159.001999 84.809097,157.437286 89.296494,157.921265 
z"/>
<path fill="#FF5C5C" opacity="1.000000" stroke="none" 
	d="
M296.187134,109.386963 
	C297.196472,107.234917 298.053314,105.449303 299.009949,103.455841 
	C300.590759,103.785332 302.006104,104.080322 304.047974,104.505905 
	C303.502045,108.636909 302.973053,112.639915 302.423126,116.801468 
	C289.412903,116.801468 276.816956,116.801468 264.059174,116.801468 
	C262.012238,111.975243 266.640167,113.116386 268.701599,111.643471 
	C268.701599,98.749229 268.701599,85.669891 268.701599,73.262077 
	C266.504730,71.611084 264.663422,70.227287 262.822113,68.843498 
	C263.114014,68.334854 263.405884,67.826218 263.697784,67.317574 
	C275.435547,67.317574 287.173340,67.317574 299.483734,67.317574 
	C299.714264,70.625511 299.950806,74.019386 300.307495,79.137146 
	C297.812653,77.706673 295.317993,77.115021 295.005524,75.942055 
	C294.014069,72.220123 291.755646,71.455574 288.411560,71.512772 
	C285.461578,71.563232 282.504547,71.202911 279.234436,71.004829 
	C279.234436,77.122719 279.234436,82.841171 279.234436,88.785431 
	C282.233124,88.785431 284.997894,88.785431 287.599884,88.785431 
	C289.300323,86.682762 288.006958,81.696617 293.437683,83.767700 
	C293.437683,88.889206 293.437683,94.118614 293.437683,99.294250 
	C288.122681,101.451355 289.260620,96.638817 287.699860,94.241547 
	C285.176025,94.241547 282.423798,94.241547 279.301880,94.241547 
	C279.301880,100.016190 279.301880,105.903412 279.301880,111.945709 
	C284.138489,111.945709 288.894531,112.049812 293.637482,111.847122 
	C294.464844,111.811775 295.237000,110.484154 296.187134,109.386963 
z"/>
<path fill="#FF5E5E" opacity="1.000000" stroke="none" 
	d="
M154.215836,88.825882 
	C155.857941,89.705963 157.206085,90.368355 158.468613,91.166260 
	C163.460770,94.321320 166.734924,98.544693 165.805984,104.779419 
	C164.844055,111.235558 160.684555,115.075760 154.618347,116.858315 
	C146.554840,119.227776 138.909561,117.097824 131.502716,114.726776 
	C131.502716,110.554855 131.502716,106.773506 131.502716,102.932304 
	C135.745605,101.189682 137.891037,102.268921 137.942856,106.628273 
	C137.998779,111.334892 140.738083,112.913612 144.980347,113.173912 
	C151.042831,113.545876 154.534164,111.999336 155.594391,107.987778 
	C156.797302,103.436333 154.204880,100.732315 150.628906,98.720802 
	C146.578232,96.442284 142.283203,94.557869 138.398270,92.034340 
	C132.511414,88.210411 130.410980,83.083466 131.770996,77.171196 
	C133.237549,70.795746 137.760117,67.819748 143.796799,66.857552 
	C146.558105,66.417419 149.512741,66.003380 152.203537,66.511093 
	C164.498077,68.830872 163.324600,66.701988 162.018784,80.084030 
	C158.139877,81.742599 156.184387,80.455025 156.038483,76.179413 
	C155.935959,73.174690 154.895248,71.026207 151.442749,70.849113 
	C147.747986,70.659584 143.887253,70.136208 141.750961,74.139481 
	C140.035049,77.354958 140.745300,80.510078 143.634277,82.581657 
	C146.851501,84.888588 150.450012,86.663795 154.215836,88.825882 
z"/>
<path fill="#FF5C5C" opacity="1.000000" stroke="none" 
	d="
M50.969315,66.975769 
	C54.423260,66.975761 57.391796,66.975761 60.243378,66.975761 
	C62.116982,72.647285 57.187084,71.060432 55.097271,72.553017 
	C55.097271,85.613136 55.097271,98.715919 55.097271,111.434822 
	C56.921402,113.490143 61.942368,111.377350 60.400486,116.731430 
	C53.510166,116.731430 46.574055,116.731430 39.641071,116.731430 
	C39.241337,113.331375 39.241337,113.331375 44.663204,111.651634 
	C44.663204,98.757050 44.663204,85.796021 44.663204,72.586433 
	C42.985806,70.967941 37.374279,72.775986 39.630276,66.975769 
	C43.197006,66.975769 46.840458,66.975769 50.969315,66.975769 
z"/>
<path fill="#FF5B5B" opacity="1.000000" stroke="none" 
	d="
M180.225967,72.111710 
	C177.365463,71.507935 174.482590,71.430862 175.937836,67.260529 
	C182.795731,67.260529 189.715057,67.260529 196.655792,67.260529 
	C198.449020,72.524773 193.768784,71.191162 191.392456,72.500198 
	C191.392456,85.502586 191.392456,98.607079 191.392456,111.316978 
	C193.035126,113.542801 198.497589,111.342484 196.616348,116.827286 
	C189.760025,116.827286 182.972519,116.827286 176.201889,116.827286 
	C175.651016,113.294327 175.651016,113.294327 181.166061,111.713615 
	C181.166061,105.831985 181.234558,99.733192 181.148178,93.636581 
	C181.047180,86.508568 180.811157,79.382469 180.225967,72.111710 
z"/>
<path fill="transparent" opacity="1.000000" stroke="none" 
	d="
M341.726837,77.644196 
	C341.836792,79.366844 341.984680,80.698219 341.869049,82.006302 
	C341.168610,89.927147 337.442169,92.273109 328.031128,90.560150 
	C328.031128,84.257240 328.031128,77.902618 328.031128,71.590996 
	C336.231537,69.768478 339.388367,71.109138 341.726837,77.644196 
z"/>
<path fill="transparent" opacity="1.000000" stroke="none" 
	d="
M234.446030,72.090515 
	C237.225021,75.246544 241.241837,78.051140 241.695526,81.346321 
	C242.690399,88.571983 242.832352,96.217903 241.541840,103.370949 
	C240.228943,110.648041 233.135941,114.206177 225.754242,112.854958 
	C224.675842,112.657555 223.007919,111.215530 222.995621,110.330185 
	C222.816238,97.428627 222.872482,84.523804 222.872482,70.668846 
	C227.015457,71.147247 230.541595,71.554420 234.446030,72.090515 
z"/>
</svg>